# xmcd
#
# Track frame offsets: 
#        150
#        15412
#        25759
#        36097
#        46832
#        58037
#        71612
#        84074
#        96697
#        108189
#        122112
#        131829
#
# Disc length: 1911 seconds
#
# Revision: 0
# Processed by: cddbd v1.5.2PL0 Copyright (c) Steve Scherf et al.
# Submitted via: ExactAudioCopy v1.0b3
#
DISCID=9707750c
DTITLE=João De Barro - Série Documento(Best)
DYEAR=1972
DGENRE=Latin-Br-Samba
TTITLE0=Anda Luzia - As Pastorinhas
TTITLE1=Linda Lourinha - Touradas Em Madrid
TTITLE2=Yes, Nós TemosBanana - Pirata Da Perna-De-Pau
TTITLE3=Tem Gato Na Tuba - Uma Andorinha Não Faz Verão
TTITLE4=Chiquita Bacana - Vai Com Jeito
TTITLE5=Tem Marujo No Samba - Balancei A Roseira
TTITLE6=Primavera No Rio - Copacabana
TTITLE7=Laura
TTITLE8=A Saudade Mata A Gente
TTITLE9=Fim De Semana Em Paquetá
TTITLE10=Carinhoso
TTITLE11=Onde O Céu E Mais Azul
EXTD=
EXTT0=
EXTT1=
EXTT2=
EXTT3=
EXTT4=
EXTT5=
EXTT6=
EXTT7=
EXTT8=
EXTT9=
EXTT10=
EXTT11=
PLAYORDER=
